<svg width="1300" height="1300" viewBox="0 0 1300 1300" fill="none" xmlns="http://www.w3.org/2000/svg">
<mask id="mask0_613_2325" style="mask-type:alpha" maskUnits="userSpaceOnUse" x="0" y="0" width="1296" height="1296">
<circle cx="647.869" cy="647.869" r="647.869" fill="#D9D9D9"/>
</mask>
<g mask="url(#mask0_613_2325)">
<path d="M1003.04 1182.75C1000.07 1184.87 996.667 1186.99 993.693 1189.12C990.295 1191.24 987.321 1193.37 983.922 1195.07C980.948 1196.77 978.399 1198.47 975.426 1200.16C975.001 1200.59 974.576 1200.59 974.151 1201.01C964.38 1206.96 954.184 1212.48 943.988 1217.58C941.014 1219.28 937.615 1220.98 934.641 1222.26C934.641 1222.26 934.216 1222.68 933.792 1222.68C930.393 1224.38 926.994 1226.08 923.595 1227.78C916.798 1231.18 909.576 1234.15 902.778 1237.13C899.38 1238.82 895.556 1240.1 892.158 1241.37C888.759 1242.65 884.935 1244.35 881.537 1245.62C878.138 1246.9 874.314 1248.6 870.916 1249.87C870.916 1249.87 870.916 1249.87 870.491 1249.87C867.092 1251.14 863.269 1252.42 859.87 1253.69C852.223 1256.24 844.151 1258.79 836.504 1261.34C833.955 1262.19 830.981 1263.04 828.432 1263.89C820.36 1266.44 812.288 1268.56 804.216 1270.26C801.243 1271.11 798.269 1271.54 794.87 1272.39C787.223 1274.09 779.151 1275.79 771.504 1277.48C769.805 1277.91 768.53 1277.91 766.831 1278.33C764.282 1278.76 761.308 1279.18 758.759 1279.61C754.935 1280.03 751.537 1280.88 747.713 1281.31C746.014 1281.73 744.314 1281.73 742.615 1282.16C740.491 1282.58 737.942 1283.01 735.393 1283.01C728.595 1283.86 721.373 1284.71 714.576 1285.56C712.452 1285.98 709.903 1285.98 707.779 1286.41H707.354C704.38 1286.83 701.406 1286.83 698.432 1287.26C695.458 1287.68 692.484 1287.68 689.511 1287.68C687.811 1287.68 685.687 1288.11 683.988 1288.11C680.589 1288.11 677.615 1288.53 674.641 1288.53C670.393 1288.53 666.569 1288.96 662.321 1288.96C658.073 1288.96 654.249 1288.96 650.001 1288.96C647.027 1288.96 644.053 1288.96 641.079 1288.96C461.798 1286.41 300.785 1210.36 185.654 1089.71C185.654 1089.71 185.654 1089.28 185.229 1089.28C172.484 1077.81 183.53 1016.64 234.935 977.975C299.511 929.119 454.151 898.531 454.151 898.531C454.151 898.531 514.053 888.759 736.243 935.066C866.243 962.256 965.229 1001.77 1020.46 1108.82C1031.93 1130.92 1043.4 1164.9 1003.04 1182.75Z" fill="white"/>
<path d="M737.517 930.393C819.086 946.961 906.177 964.805 973.302 1018.76C995.818 1037.03 1010.69 1063.79 1023.01 1089.71C1028.96 1102.45 1034.9 1115.62 1039.58 1129.64C1042.13 1138.99 1045.95 1149.61 1043.82 1160.65C1043.4 1163.63 1040.85 1167.45 1038.73 1169.58C1028.96 1179.35 1018.33 1185.29 1007.71 1192.94C945.262 1236.28 873.465 1266.86 799.119 1283.01C633.432 1319.12 454.151 1291.08 308.432 1203.99C260.001 1174.67 215.393 1138.99 177.158 1096.93C172.909 1091.83 172.909 1083.33 172.909 1077.81C173.334 1065.07 176.733 1052.75 180.981 1041.28C191.177 1014.94 204.347 988.595 226.864 970.327C243.007 959.282 260.426 949.935 278.269 942.288C334.347 918.497 393.4 901.929 454.151 895.131C459.249 894.706 460.099 901.929 455.001 902.778C396.798 914.674 339.02 932.517 285.066 956.733C265.524 966.504 244.707 975.001 228.988 990.295C214.118 1006.44 203.498 1026.41 195.001 1046.8C189.478 1059.12 185.654 1078.66 187.354 1088.43C214.118 1120.29 245.556 1148.33 279.543 1172.55C465.622 1302.55 748.138 1311.05 946.112 1202.71C963.955 1192.94 981.373 1181.9 997.942 1170.43C1006.01 1164.9 1014.51 1160.23 1020.88 1153.86C1021.31 1153.43 1020.88 1153.86 1020.88 1154.28C1020.88 1154.71 1020.46 1155.13 1020.46 1155.13C1020.88 1150.03 1019.18 1143.24 1017.06 1136.44C1009.41 1111.8 997.092 1085.88 983.922 1063.37C963.105 1029.8 927.844 1008.56 892.158 991.569C867.517 980.099 841.602 971.177 815.262 962.68C788.922 954.184 762.158 946.961 735.393 940.589C728.596 938.889 730.72 929.118 737.517 930.393Z" fill="black"/>
<path d="M1061.24 1239.07C1053.17 1176.2 1017.48 1070.41 995.815 1041.95C972.025 1010.93 962.253 1001.16 882.809 974.398C878.561 953.156 862.842 899.627 844.149 877.11C815.685 834.202 737.94 824.431 714.574 829.529C714.574 829.529 588.822 785.346 443.953 785.346C398.07 795.542 344.966 816.359 316.077 860.117C296.534 889.006 318.626 898.352 308.855 924.692C306.306 931.49 246.829 965.476 222.613 985.869C211.567 994.79 199.247 1017.31 190.75 1046.62C173.757 1106.52 192.025 1189.37 170.783 1261.59C129.998 1400.93 47.1553 1442.57 47.1553 1442.57H1144.93C1144.08 1442.14 1078.66 1371.62 1061.24 1239.07Z" fill="white"/>
<path d="M1054.87 1239.92C1046.37 1184.27 1029.38 1129.04 1007.71 1077.21C997.091 1052.14 980.948 1027.93 958.431 1013.06C946.961 1005.84 934.216 1000.31 921.046 994.792C907.876 989.693 894.281 985.02 881.111 980.347C878.987 979.497 877.288 977.798 876.863 975.674C875.163 967.177 873.039 959.105 870.49 950.608C859.444 916.197 847.549 877.961 815.261 857.994C790.621 843.125 761.307 835.903 732.843 834.628C727.32 834.628 721.373 834.628 716.275 835.478H714.575C714.15 835.478 713.301 835.478 712.876 835.053C692.484 825.282 669.967 819.334 647.876 813.386C581.601 798.092 512.353 791.72 444.379 791.295C402.745 801.066 344.542 824.007 319.052 866.491C314.804 873.288 312.68 880.086 313.529 887.733C314.379 896.229 317.353 905.576 315.229 914.497C314.379 918.321 313.529 922.569 311.83 925.968C308.431 930.641 302.909 933.615 298.66 936.589C276.569 951.033 254.052 963.778 232.81 978.648C225.588 983.746 218.791 988.419 213.693 995.641C198.824 1016.88 189.902 1042.37 186.078 1067.86C179.281 1119.69 186.078 1172.37 179.281 1224.2C171.634 1276.03 151.667 1326.16 123.627 1370.35C104.085 1400.09 80.2941 1427.7 50.1307 1446.82L47.1569 1434.92H1144.93L1140.26 1445.54C1127.52 1431.1 1117.32 1415.38 1107.97 1398.81C1079.08 1350.38 1062.09 1295.58 1054.87 1239.92ZM1067.61 1238.22C1072.29 1274.33 1081.21 1310.02 1094.8 1344.01C1108.4 1377.57 1125.39 1410.28 1149.18 1437.9C1152.58 1441.72 1149.61 1448.94 1144.51 1448.52H46.732C43.3334 1448.52 40.3595 1445.54 40.3595 1442.14C40.3595 1439.6 41.634 1437.47 43.7582 1436.62C50.5556 1432.8 57.353 1427.28 63.7255 1421.75C119.379 1371.62 154.216 1297.28 165.686 1223.35C175.458 1154.11 157.19 1079.33 188.203 1013.48C195.425 998.19 204.346 982.046 218.791 972.275C245.131 952.733 274.02 938.288 299.935 919.171C300.359 919.171 300.359 918.746 300.359 918.746C299.935 919.171 299.51 920.02 299.51 920.445C302.059 914.497 302.909 909.399 302.059 902.602C300.784 894.105 298.66 882.635 301.634 873.713C302.909 868.615 305.458 863.942 308.007 860.118C338.595 814.236 392.549 793.844 443.954 782.373C458.399 782.798 473.268 780.249 487.712 780.249C507.68 780.249 528.072 783.223 548.039 785.772C605.392 794.693 660.621 809.988 717.124 822.308L713.301 821.883C726.471 819.334 738.791 820.608 751.536 822.308C833.105 834.628 860.719 870.314 882.81 946.36C885.359 954.857 887.484 963.354 889.608 972.275L885.359 967.177C926.144 981.622 972.026 994.791 997.941 1032.6C1007.29 1044.07 1014.08 1057.67 1020.03 1071.26C1041.7 1125.64 1058.69 1180.45 1067.61 1238.22Z" fill="black"/>
<path d="M391.7 959.531C423.138 1026.66 471.995 1083.58 530.197 1128.62C532.321 1130.32 530.197 1133.71 527.648 1132.44C475.818 1107.8 432.06 1065.74 406.145 1014.76C397.648 997.767 390.426 979.499 387.877 960.381C387.027 958.257 390.426 957.407 391.7 959.531Z" fill="black"/>
<path d="M889.184 973.55C890.459 1044.5 861.57 1117.14 806.341 1163.03C805.067 1164.3 803.367 1163.88 802.093 1162.6C800.818 1161.33 801.243 1159.63 802.517 1158.35C814.838 1146.46 827.158 1134.14 836.504 1119.69C856.047 1091.65 867.942 1058.52 873.465 1024.96C876.014 1008.39 877.714 990.543 876.439 973.975C876.014 965.903 888.759 965.053 889.184 973.55Z" fill="black"/>
<path d="M638.954 1142.21C629.183 1176.62 621.111 1214.01 625.784 1249.69C627.059 1257.77 614.739 1259.89 613.039 1251.39C610.915 1231.85 613.464 1212.73 616.863 1194.04C620.686 1175.35 625.359 1157.5 631.732 1139.66C633.431 1135.41 640.654 1137.54 638.954 1142.21Z" fill="black"/>
<path d="M774.052 1135.84C788.072 1166 797.843 1197.44 805.49 1229.3C806.34 1232.7 804.216 1236.1 800.817 1236.95C797.418 1237.8 794.02 1235.67 793.17 1232.27C788.922 1208.48 783.399 1184.69 775.752 1161.33C773.203 1153.68 770.654 1146.03 767.68 1138.39C765.98 1134.56 771.928 1131.59 774.052 1135.84Z" fill="black"/>
<path d="M317.778 922.994C333.497 1008.81 393.824 1081.46 466.471 1127.76C491.111 1143.48 517.451 1157.08 544.641 1168.12C546.34 1168.97 547.19 1170.67 546.34 1172.37C545.915 1174.07 543.791 1174.92 542.516 1174.07C514.477 1163.88 487.288 1151.13 461.797 1135.84C409.967 1105.25 364.51 1062.76 333.922 1010.93C318.203 984.17 305.882 956.131 299.935 925.543C299.085 920.445 302.484 915.772 307.582 914.922C312.255 913.647 317.353 917.471 317.778 922.994Z" fill="black"/>
<path d="M613.462 1259.04C601.567 1257.77 593.07 1246.72 595.619 1234.82L600.292 1212.31C601.992 1203.39 610.488 1197.01 619.41 1198.29C628.332 1199.14 635.554 1206.79 635.554 1216.13V1239.07C635.979 1250.97 625.782 1260.31 613.462 1259.04Z" fill="black"/>
<path d="M809.314 1243.32C797.843 1247.57 785.523 1240.77 782.549 1228.88L777.026 1206.36C774.902 1197.44 779.575 1188.52 788.497 1185.12C796.993 1182.14 806.765 1185.97 810.588 1194.04L820.784 1214.86C825.882 1226.33 820.784 1239.5 809.314 1243.32Z" fill="black"/>
<path d="M1005.59 1230.58C1005.59 1230.58 1029.38 1363.97 1020.03 1442.14" stroke="black" stroke-width="5.1257" stroke-miterlimit="10" stroke-linecap="round" stroke-linejoin="round"/>
<path d="M450.75 907.7C444.803 890.707 442.254 873.289 443.528 855.446C443.528 853.746 444.803 852.896 446.502 852.896C447.776 852.896 449.051 854.171 449.051 855.446C450.326 871.589 454.999 888.158 462.646 902.178C466.469 910.674 453.724 916.197 450.75 907.7Z" fill="black"/>
<path d="M737.939 930.216C726.044 903.452 696.73 889.857 670.815 880.51C654.671 875.412 636.828 871.589 619.835 869.04C578.626 862.667 520.423 852.896 479.214 848.648C478.789 848.648 478.789 847.798 479.214 847.798C491.109 846.523 503.005 846.523 514.9 846.523C550.587 847.373 586.273 851.197 621.534 856.72C656.796 862.242 694.606 872.863 721.371 898.354C729.868 907.275 737.515 917.471 739.639 929.791C740.064 931.066 738.364 931.491 737.939 930.216Z" fill="black"/>
<path d="M777.449 1043.4C768.527 1087.16 710.749 1113.5 613.462 1073.99C512.351 1033.2 468.592 935.914 457.547 907.026C517.449 794.869 475.815 717.124 475.815 717.124C613.887 705.228 734.54 866.666 734.54 866.666L753.233 946.535C754.932 953.333 758.331 959.28 763.429 963.529C772.351 979.248 782.972 1015.36 777.449 1043.4Z" fill="white"/>
<path d="M455.424 908.3C463.496 895.979 468.594 881.535 471.993 867.515C478.366 838.202 480.49 808.463 480.915 778.724V767.679C479.64 756.633 475.816 745.162 471.568 734.966C466.045 721.372 486.013 712.875 492.385 726.47C493.235 728.169 493.235 731.143 493.235 732.842C494.509 790.62 497.058 864.966 460.522 912.973C457.973 915.522 452.875 911.698 455.424 908.3Z" fill="black"/>
<path d="M739.214 865.817C745.586 869.64 747.711 874.738 748.56 879.836C751.109 890.032 750.26 901.078 752.809 911.699C754.933 921.895 761.305 931.666 763.005 942.287C765.129 953.333 771.501 976.699 774.05 988.17C774.9 990.719 773.201 993.693 770.227 994.117C768.528 994.542 767.253 994.117 765.979 993.268C760.456 988.595 757.907 983.921 754.508 977.974C748.985 967.778 745.162 958.431 741.763 946.96C738.789 936.764 740.064 925.719 737.514 915.098C735.39 904.902 729.443 895.13 727.318 884.51C726.044 879.411 725.619 873.889 729.443 867.516C731.992 864.967 736.24 864.117 739.214 865.817Z" fill="black"/>
<path d="M769.803 977.974C688.66 973.725 622.385 948.235 557.81 833.104C612.189 881.111 676.339 899.379 743.888 907.876L752.81 946.961C754.509 953.758 764.705 973.725 769.803 977.974Z" fill="black"/>
<path d="M766.406 962.255C780.851 989.444 789.347 1023.43 780.426 1053.59C773.629 1074.84 754.086 1090.56 732.844 1096.5C683.563 1109.67 626.635 1088.86 582.877 1065.49C528.923 1035.33 488.988 984.771 463.498 929.542C461.798 925.294 467.746 921.895 470.295 926.144C479.217 943.987 489.413 961.405 500.883 977.124C512.354 993.268 525.524 1008.14 540.393 1021.31C583.727 1060.39 642.354 1084.61 700.981 1084.61C761.308 1082.91 784.249 1051.05 770.23 992.418C768.106 983.072 764.707 973.301 760.034 965.229C757.485 961.83 763.857 958.006 766.406 962.255Z" fill="black"/>
<path d="M930.818 452.026C938.465 487.712 942.288 516.601 921.471 611.764C901.079 706.503 940.589 802.091 840.328 889.183C772.779 947.81 654.674 958.856 560.36 894.705C528.497 873.039 520.001 771.928 494.935 733.267C484.314 717.124 477.942 743.039 453.726 716.274C420.164 679.738 379.805 606.241 399.772 476.241C432.06 265.522 599.02 240.882 722.648 264.248C846.7 287.614 910.426 358.137 930.818 452.026Z" fill="white"/>
<path d="M474.542 753.66C464.771 737.516 452.451 723.497 440.98 708.627C423.986 685.686 411.241 659.346 402.745 632.157C366.209 515.751 385.751 364.085 493.66 291.438C593.496 223.889 784.248 244.281 871.764 325.849C915.522 365.359 939.738 422.712 944.836 480.49C947.385 519.15 938.039 556.536 929.967 593.921C920.62 630.457 918.496 666.993 918.496 704.804C918.071 742.614 916.372 782.124 901.928 817.81C879.836 872.189 833.529 916.372 777.875 935.065C704.804 960.555 618.562 946.111 558.66 897.255C556.111 895.131 558.66 891.732 561.634 893.006C640.228 937.614 743.464 945.261 819.934 893.856C865.392 863.268 896.83 814.836 904.052 760.457C910 723.497 908.3 686.111 911.699 648.725C912.973 632.157 917.647 609.216 921.045 592.647C926.143 565.032 929.542 537.418 929.117 509.804C928.692 482.614 922.745 455.849 914.673 429.934C886.634 337.745 806.339 283.366 713.725 268.497C575.228 244.281 454.15 295.686 418.039 439.706C402.32 510.229 390 587.974 419.738 656.372C430.359 682.287 447.777 704.379 467.745 723.497L487.287 744.314C495.784 752.81 481.339 763.856 474.542 753.66Z" fill="black"/>
<path d="M524.671 618.561C524.671 618.561 511.501 554.836 449.475 562.483C395.945 569.28 377.252 697.581 498.756 733.267" fill="white"/>
<path d="M493.234 677.613C483.462 672.091 476.665 662.744 476.24 651.274C476.665 642.777 477.94 633.006 475.815 624.509C474.541 616.437 466.044 614.313 459.672 614.738C452.874 616.012 448.626 624.509 447.351 631.306C447.351 631.731 446.927 633.006 446.927 633.43C446.502 635.555 443.103 635.555 442.253 633.43C436.73 616.862 449.051 598.594 466.894 600.718C491.959 602.417 495.358 628.757 490.685 648.725C488.136 657.221 491.534 664.868 496.208 672.091L497.057 673.365C499.181 675.914 495.783 679.313 493.234 677.613Z" fill="black"/>
<path d="M833.103 573.529C839.475 603.692 851.371 631.731 866.24 658.071C879.41 690.359 845.423 720.947 815.26 719.672C811.861 719.672 811.436 714.999 814.41 714.15C833.528 708.202 850.946 695.457 853.92 675.914C855.194 669.967 853.495 664.869 850.521 659.771C836.501 633.431 828.005 603.267 830.129 573.529C830.129 571.405 833.103 571.405 833.103 573.529Z" fill="black"/>
<path d="M522.549 618.987C512.777 593.922 491.536 570.131 463.071 570.556C460.522 570.131 456.274 570.98 453.725 570.98C446.503 571.405 440.555 573.954 435.032 579.052C407.843 606.242 412.516 654.248 434.607 684.412C442.254 695.033 452.026 704.379 463.071 712.026C474.117 719.673 486.437 725.621 499.607 730.719C502.581 731.569 501.307 736.242 498.333 735.817C469.869 729.869 442.679 715.85 423.986 692.484C395.098 657.647 389.15 599.445 423.562 565.458C431.209 558.66 441.83 553.562 452.451 553.562C455.849 553.562 460.947 552.713 464.346 553.562C482.189 554.412 499.183 563.333 510.228 577.353C520 589.248 525.522 603.693 527.222 618.137C527.222 620.686 523.398 621.536 522.549 618.987Z" fill="black"/>
<path d="M800.817 762.157C773.628 788.072 722.222 767.255 708.628 735.817C706.928 731.993 711.177 728.595 714.575 730.294C721.798 734.118 728.17 737.941 734.968 740.915C754.51 749.837 774.902 757.059 796.569 754.935C800.817 754.085 803.791 759.183 800.817 762.157Z" fill="black"/>
<path d="M674.641 616.863C664.445 616.438 656.798 607.941 657.648 597.745L658.073 585.85C658.498 575.654 666.994 568.007 677.19 568.856C687.386 569.281 695.034 577.778 694.184 587.974L693.759 599.87C693.334 609.641 684.838 617.288 674.641 616.863Z" fill="black"/>
<path d="M853.496 623.236C844.15 622.811 836.928 614.739 837.353 605.393L837.777 594.347C838.202 585.001 846.274 577.779 855.62 578.203C864.967 578.628 872.189 586.7 871.764 596.046L871.339 607.092C870.915 616.439 862.843 623.661 853.496 623.236Z" fill="black"/>
<path d="M712.877 593.922C698.857 584.576 683.563 578.203 666.569 581.602C661.047 582.451 655.524 584.151 652.125 587.974C650.851 589.674 647.877 589.249 647.877 586.7C648.302 578.203 655.524 572.68 662.321 569.281C675.491 562.484 693.759 563.759 705.655 572.68C709.903 575.229 724.347 590.948 716.7 594.347C715.001 595.196 714.151 594.772 712.877 593.922Z" fill="black"/>
<path d="M834.38 596.046C834.38 578.203 856.472 571.83 870.066 578.203C877.713 581.602 883.236 588.399 885.36 596.471C886.21 599.02 882.387 601.144 880.687 599.02C873.465 590.523 861.145 586.275 851.373 591.373C848.4 593.072 847.975 594.347 847.125 596.046C847.125 604.543 834.805 604.118 834.38 596.046Z" fill="black"/>
<path d="M733.269 523.824C742.19 526.798 751.112 518.726 749.413 508.955C748.563 503.857 746.439 498.759 742.19 494.935C729.445 483.464 676.766 473.268 644.903 488.138C616.864 501.732 692.485 510.229 733.269 523.824Z" fill="black"/>
<path d="M860.297 530.621C853.074 533.17 845.427 525.523 846.702 516.602C847.127 511.928 848.826 507.255 852.225 503.857C862.421 493.66 897.257 485.589 919.349 501.308C938.466 514.477 893.434 518.301 860.297 530.621Z" fill="black"/>
<path d="M846.699 412.091C855.621 416.764 863.268 412.516 867.941 403.17C917.222 395.522 928.693 494.085 930.392 500.032C935.915 522.549 965.654 526.797 976.699 506.83C1006.86 451.601 1026.41 373.856 941.013 325.424C951.634 309.705 943.987 231.536 855.196 212.418C823.333 205.62 781.699 235.359 729.444 223.888C525.098 178.431 313.105 221.764 329.673 491.536C333.497 550.588 337.32 614.313 237.059 656.797C120.654 706.078 126.601 834.803 208.595 861.143C242.582 872.189 130.425 948.66 195.85 1016.63C229.837 1052.32 290.588 980.098 352.19 1019.18C445.229 1078.23 491.536 1051.47 509.804 1028.1C547.19 980.522 500.882 884.934 500.882 884.934C500.882 884.934 519.15 855.62 525.098 839.902C553.987 762.581 485.163 727.745 485.163 727.745C378.954 686.96 398.072 568.431 449.902 561.634C504.281 554.836 521.275 603.268 524.248 615.163C524.248 615.163 572.255 681.437 664.869 530.196C756.634 379.379 806.34 390.424 846.699 412.091Z" fill="black"/>
<path d="M1224.38 358.137C1482.25 854.771 1028.95 1415.13 488.562 1278.33C245.98 1218.01 50.9804 1007.71 10.621 760.882C-35.2614 515.327 75.621 251.503 282.941 112.582C567.157 -82.8433 960.98 -17.8433 1164.48 261.699C1165.75 262.974 1165.33 265.098 1163.63 266.372C1162.35 267.647 1160.23 267.222 1158.95 265.523C1130.92 229.412 1099.05 196.699 1064.22 167.385C1006.86 118.529 939.739 80.2939 868.791 54.3789C507.68 -76.4708 111.307 141.046 32.2876 518.725C-56.9281 941.863 302.909 1331.44 731.993 1273.24C1062.94 1231.6 1308.92 926.144 1281.73 593.921C1275.78 513.627 1254.54 434.183 1219.28 361.111C1218.43 359.836 1219.28 358.137 1220.56 357.287C1221.83 356.438 1223.53 356.863 1224.38 358.137Z" fill="black"/>
</g>
</svg>
